<?xml version="1.0" encoding="UTF-8" standalone="no"?>
<!-- Created with Inkscape (http://www.inkscape.org/) -->

<svg
   xmlns:dc="http://purl.org/dc/elements/1.1/"
   xmlns:cc="http://creativecommons.org/ns#"
   xmlns:rdf="http://www.w3.org/1999/02/22-rdf-syntax-ns#"
   xmlns:svg="http://www.w3.org/2000/svg"
   xmlns="http://www.w3.org/2000/svg"
   xmlns:sodipodi="http://sodipodi.sourceforge.net/DTD/sodipodi-0.dtd"
   xmlns:inkscape="http://www.inkscape.org/namespaces/inkscape"
   width="120mm"
   height="120mm"
   viewBox="0 0 120 120"
   version="1.1"
   id="svg4119"
   inkscape:version="0.92.5 (2060ec1f9f, 2020-04-08)"
   sodipodi:docname="smlln.svg">
  <defs
     id="defs4113" />
  <sodipodi:namedview
     id="base"
     pagecolor="#ffffff"
     bordercolor="#666666"
     borderopacity="1.0"
     inkscape:pageopacity="0.0"
     inkscape:pageshadow="2"
     inkscape:zoom="0.98994949"
     inkscape:cx="561.51392"
     inkscape:cy="344.37915"
     inkscape:document-units="mm"
     inkscape:current-layer="layer1"
     showgrid="false"
     inkscape:pagecheckerboard="true"
     inkscape:window-width="1920"
     inkscape:window-height="1016"
     inkscape:window-x="1920"
     inkscape:window-y="27"
     inkscape:window-maximized="1" />
  <metadata
     id="metadata4116">
    <rdf:RDF>
      <cc:Work
         rdf:about="">
        <dc:format>image/svg+xml</dc:format>
        <dc:type
           rdf:resource="http://purl.org/dc/dcmitype/StillImage" />
        <dc:title></dc:title>
      </cc:Work>
    </rdf:RDF>
  </metadata>
  <g
     inkscape:label="Layer 1"
     inkscape:groupmode="layer"
     id="layer1"
     transform="translate(0,-177)">
    <g
       id="g4214"
       style="fill:#ffffff"
       transform="matrix(2.1058714,0,0,2.1058714,-148.75133,-40.007995)">
      <path
         style="fill:#ffffff;fill-opacity:1;stroke-width:0.08466667"
         d="m 122.89184,155.73108 c -0.9309,-0.18456 -1.74657,-0.81355 -2.16918,-1.67273 -0.25862,-0.52575 -0.27824,-0.62567 -0.27769,-1.41371 5.1e-4,-0.76813 0.0239,-0.89402 0.24771,-1.33713 0.30516,-0.60404 0.91467,-1.18623 1.55357,-1.48393 0.41154,-0.19175 0.59838,-0.22558 1.24613,-0.22558 0.64635,0 0.83492,0.034 1.24249,0.22392 0.67164,0.31299 1.20371,0.83345 1.53035,1.49693 0.25203,0.51195 0.27516,0.62669 0.27516,1.36504 0,0.69543 -0.0305,0.87006 -0.22229,1.27178 -0.44351,0.92913 -1.24484,1.55675 -2.25838,1.7688 -0.50152,0.10493 -0.66725,0.10587 -1.16787,0.007 z m 1.78927,-0.61097 c 0.51986,-0.26551 1.09357,-0.87048 1.33104,-1.40356 0.26421,-0.59311 0.24688,-1.51765 -0.0402,-2.14473 -0.43988,-0.96081 -1.27084,-1.52601 -2.325,-1.58142 -1.16934,-0.0615 -2.07784,0.45998 -2.58053,1.48109 -0.24468,0.49703 -0.28075,0.65398 -0.27808,1.21014 0.004,0.77121 0.19343,1.24942 0.72419,1.82522 0.60856,0.66022 1.18627,0.89532 2.10685,0.85738 0.4788,-0.0197 0.73997,-0.0798 1.06173,-0.24412 z m -2.27529,-0.79755 c -0.031,-0.031 -0.0564,-0.79304 -0.0564,-1.69333 v -1.63689 h 0.80705 c 0.88554,0 1.28754,0.11532 1.51022,0.43323 0.30213,0.43136 0.094,1.1558 -0.38711,1.34746 -0.15354,0.0612 -0.29194,0.12058 -0.30756,0.13204 -0.0156,0.0115 0.16536,0.30796 0.40217,0.6589 0.23681,0.35093 0.43056,0.67788 0.43056,0.72655 0,0.0487 -0.0961,0.0885 -0.21357,0.0885 -0.17476,0 -0.29878,-0.13074 -0.68266,-0.71967 -0.43838,-0.67253 -0.48817,-0.71967 -0.7601,-0.71967 h -0.291 v 0.71967 c 0,0.69749 -0.006,0.71967 -0.19756,0.71967 -0.10865,0 -0.22295,-0.0254 -0.254,-0.0564 z m 1.52382,-1.89618 c 0.28617,-0.1088 0.36407,-0.21935 0.36577,-0.51907 0.002,-0.34007 -0.27754,-0.49164 -0.90654,-0.49164 h -0.53149 v 0.55034 0.55033 h 0.41782 c 0.2298,0 0.5243,-0.0405 0.65444,-0.09 z m -48.466109,2.92248 c -1.132923,-0.30615 -1.938978,-1.04758 -2.309402,-2.12423 -0.162284,-0.47169 -0.165417,-0.85877 -0.165417,-20.43562 0,-19.64588 0.0026,-19.96235 0.167111,-20.44054 0.315343,-0.91657 1.064586,-1.67431 2.034222,-2.05731 0.361314,-0.14271 1.417795,-0.15049 20.446999,-0.15049 h 20.065996 l 0.47513,0.19221 c 0.92963,0.37606 1.62493,1.09955 1.94179,2.02051 0.16228,0.47169 0.16542,0.85876 0.16542,20.43562 0,19.64588 -0.003,19.96234 -0.16711,20.44054 -0.31535,0.91656 -1.06459,1.6743 -2.03423,2.0573 -0.36086,0.14254 -1.43243,0.15134 -20.277662,0.16653 -16.985121,0.0137 -19.961958,-0.002 -20.342847,-0.10452 z m 10.902514,-17.43752 v -10.795 h -3.344334 -3.344333 v 10.795 10.795 h 3.344333 3.344334 z m 11.007305,4.7625 c 4.24e-4,-3.70424 0.03415,-6.2449 0.08747,-6.58283 0.199244,-1.26285 0.637843,-2.18563 1.327278,-2.7925 0.698892,-0.61519 2.062042,-0.95593 3.150342,-0.78748 1.17226,0.18145 1.93417,0.71626 2.38624,1.67498 0.5239,1.11103 0.52142,1.07515 0.55933,8.10683 l 0.0346,6.4135 h 3.33906 3.33906 l -7.6e-4,-6.32883 c -7.2e-4,-6.28115 -0.0559,-8.03516 -0.2961,-9.41917 -0.5587,-3.21867 -2.00256,-5.10254 -4.52914,-5.90939 -1.0317,-0.32947 -1.53086,-0.39248 -3.13267,-0.39541 -1.39102,-0.003 -1.64214,0.0191 -2.24366,0.19311 -1.600739,0.46315 -3.104588,1.55734 -3.999958,2.91034 -0.117449,0.17747 -0.246581,0.32268 -0.28696,0.32268 -0.04038,0 -0.07342,-0.66675 -0.07342,-1.48166 v -1.48167 h -3.175 -3.174999 v 10.795 10.795 h 3.344333 3.344333 l 6.77e-4,-6.0325 z M 83.843044,124.05852 c 1.96545,-0.41389 3.369328,-2.42045 3.048415,-4.3571 -0.278573,-1.68113 -1.583598,-2.99097 -3.25612,-3.26811 -2.507458,-0.4155 -4.827303,1.91885 -4.39754,4.42503 0.149287,0.87057 0.463493,1.46894 1.110483,2.11476 0.986416,0.98463 2.193332,1.35949 3.494762,1.08542 z"
         id="path4222"
         inkscape:connector-curvature="0" />
      <path
         style="fill:#ffffff;fill-opacity:1;stroke-width:0.08466667"
         d="m 122.60338,155.65835 c -0.81973,-0.26516 -1.5762,-0.925 -1.93293,-1.68604 -0.19539,-0.41684 -0.22607,-0.59172 -0.22607,-1.28842 0,-0.7399 0.0228,-0.85245 0.27775,-1.37031 0.64832,-1.31692 2.09612,-1.99729 3.49017,-1.64015 0.97021,0.24855 1.68592,0.83881 2.10785,1.73838 0.18879,0.4025 0.22023,0.58436 0.22023,1.27386 0,0.71736 -0.0267,0.85877 -0.24716,1.30773 -0.31507,0.64169 -0.85818,1.18446 -1.47187,1.47093 -0.39385,0.18385 -0.62206,0.22856 -1.24431,0.24381 -0.4191,0.0103 -0.85725,-0.0121 -0.97366,-0.0498 z m 2.07433,-0.53869 c 1.18321,-0.61042 1.79729,-1.93485 1.45039,-3.12816 -0.57804,-1.98836 -2.93227,-2.70154 -4.4677,-1.35341 -0.16514,0.14499 -0.42886,0.50309 -0.58605,0.79577 -0.25558,0.47588 -0.28602,0.60376 -0.28785,1.20948 -0.002,0.81547 0.20053,1.33315 0.74143,1.89082 0.62372,0.64307 1.18862,0.86727 2.09145,0.83007 0.48071,-0.0198 0.73786,-0.0792 1.05833,-0.24457 z m -2.30899,-2.45515 0.023,-1.62984 0.508,-0.0271 c 1.25155,-0.0669 1.79215,0.16256 1.8772,0.79666 0.0604,0.45043 -0.13074,0.82279 -0.49737,0.96884 -0.15354,0.0612 -0.2921,0.12074 -0.30792,0.1324 -0.0158,0.0117 0.12128,0.2432 0.30464,0.51455 0.18337,0.27135 0.37862,0.57909 0.4339,0.68386 0.0934,0.17699 0.083,0.1905 -0.14643,0.1905 -0.2179,0 -0.30026,-0.0847 -0.70021,-0.71967 -0.41796,-0.66361 -0.47479,-0.71966 -0.7297,-0.71966 h -0.27644 v 0.71966 0.71967 h -0.25583 -0.25583 z m 1.81022,-0.35814 c 0.0648,-0.0886 0.11777,-0.26592 0.11777,-0.39408 0,-0.34556 -0.27614,-0.49662 -0.90784,-0.49662 h -0.53149 v 0.55989 0.55989 l 0.60189,-0.034 c 0.46814,-0.0265 0.62807,-0.0698 0.71967,-0.19507 z m -48.561726,3.08082 c -0.976284,-0.19138 -1.877767,-0.9104 -2.325242,-1.85461 l -0.260927,-0.55057 v -20.19478 -20.19478 l 0.279135,-0.56701 c 0.500316,-1.01628 1.360623,-1.66779 2.434529,-1.84364 0.704608,-0.11538 39.227591,-0.11307 39.840941,0.002 1.05479,0.19856 1.92821,0.87253 2.38768,1.84245 l 0.26971,0.56937 v 20.193 20.193 l -0.26092,0.55057 c -0.46254,0.97599 -1.34831,1.66393 -2.39647,1.86124 -0.5715,0.10759 -39.418657,0.10114 -39.968436,-0.007 z m 10.812654,-17.45468 -0.02149,-10.77384 -3.3655,-0.0221 -3.3655,-0.0221 v 10.79597 10.79597 h 3.38699 3.386989 z m 10.962698,4.445 c 0.02719,-6.17745 0.03221,-6.34434 0.210127,-6.97688 0.519797,-1.8481 1.438911,-2.68026 3.157547,-2.85884 1.75734,-0.1826 2.95548,0.37169 3.54882,1.64177 0.54072,1.15742 0.59599,1.98172 0.59764,8.91361 l 0.001,5.60917 h 3.34434 3.34433 l -7.6e-4,-6.58283 c -4.2e-4,-3.6662 -0.0382,-7.01424 -0.0852,-7.5565 -0.33757,-3.88964 -1.52906,-6.07844 -3.91834,-7.19809 -1.12064,-0.52515 -1.89593,-0.68238 -3.61571,-0.73325 -1.67221,-0.0495 -2.23378,0.0306 -3.35024,0.47765 -1.209558,0.48433 -2.471546,1.49661 -3.160454,2.53509 l -0.304932,0.45973 -0.04233,-1.47473 -0.04233,-1.47474 H 93.85874 90.641407 l -0.02149,10.77384 -0.02149,10.77383 h 3.382989 3.382989 z m -13.370061,-18.3511 c 0.711947,-0.18544 1.133551,-0.42832 1.718485,-0.99 1.543848,-1.48248 1.61001,-3.82121 0.152632,-5.39536 -1.160394,-1.25336 -2.968651,-1.60626 -4.509074,-0.88 -0.588447,0.27744 -1.373891,1.00978 -1.706506,1.59113 -0.63575,1.11117 -0.66449,2.54891 -0.07409,3.7062 0.249209,0.48849 1.09048,1.34488 1.586161,1.61466 0.848927,0.46204 1.907921,0.59416 2.832389,0.35337 z"
         id="path4220"
         inkscape:connector-curvature="0" />
      <path
         style="fill:#ffffff;fill-opacity:1;stroke-width:0.08466667"
         d="m 122.52681,155.61094 c -1.32422,-0.43011 -2.21609,-1.79023 -2.09795,-3.19944 0.0942,-1.12338 0.68143,-1.97796 1.70776,-2.4852 0.61488,-0.30389 0.6379,-0.3082 1.45592,-0.27234 0.68683,0.0301 0.90627,0.0751 1.2636,0.25938 0.58084,0.29947 0.89625,0.57671 1.20693,1.06087 0.9999,1.5582 0.4167,3.66802 -1.23766,4.47742 -0.57572,0.28168 -1.68512,0.35857 -2.2986,0.15931 z m 2.13835,-0.45566 c 0.50672,-0.22414 1.03985,-0.77517 1.31236,-1.35641 0.32545,-0.69417 0.3209,-1.63593 -0.0112,-2.31212 -0.57323,-1.16728 -1.96232,-1.81737 -3.14724,-1.4729 -0.86754,0.2522 -1.49554,0.78209 -1.85697,1.56686 -0.26655,0.57876 -0.25283,1.67482 0.0281,2.24576 0.67799,1.37777 2.26606,1.952 3.67489,1.32881 z m -2.23112,-2.46961 v -1.60866 h 0.84116 c 1.02842,0 1.2439,0.073 1.41346,0.47881 0.23321,0.55815 -0.0261,1.12169 -0.57936,1.25898 l -0.22974,0.057 0.40527,0.60543 c 0.58009,0.8666 0.56248,0.8171 0.29077,0.8171 -0.20806,0 -0.29796,-0.0934 -0.69237,-0.71967 -0.42315,-0.67186 -0.47228,-0.71966 -0.73956,-0.71966 h -0.28629 v 0.71966 c 0,0.7112 -0.002,0.71967 -0.21167,0.71967 h -0.21167 z m 1.6745,-0.30113 c 0.22831,-0.15992 0.25352,-0.58699 0.048,-0.81403 -0.10975,-0.12128 -0.26574,-0.15484 -0.71967,-0.15484 h -0.57954 v 0.55034 0.55033 h 0.53149 c 0.34402,0 0.59787,-0.0465 0.71967,-0.1318 z m -48.847021,2.89283 c -0.895442,-0.32091 -1.702415,-1.07312 -2.035423,-1.89729 l -0.195051,-0.48274 v -20.10833 -20.10834 l 0.196477,-0.48655 c 0.256647,-0.63555 0.888489,-1.31756 1.5559,-1.67944 l 0.533623,-0.28934 h 20.319999 20.319996 l 0.50938,0.2664 c 0.6268,0.3278 1.24875,0.97802 1.54971,1.62014 l 0.22691,0.48413 v 20.193 20.193 l -0.22691,0.48413 c -0.30016,0.64042 -0.88132,1.24782 -1.53102,1.60016 l -0.52807,0.28637 -20.192996,0.0178 c -16.469942,0.0145 -20.250067,-0.003 -20.502525,-0.0931 z m 11.168347,-17.34486 0.02149,-10.81617 h -3.386989 -3.386988 v 10.78089 c 0,5.92949 0.02584,10.80672 0.05741,10.8383 0.03158,0.0316 1.546052,0.0474 3.365499,0.0353 l 3.308087,-0.0221 z m 10.944044,4.55083 c 0.03966,-5.70808 0.0574,-6.32181 0.199414,-6.90033 0.548348,-2.23376 1.786596,-3.14859 4.097466,-3.02724 1.62291,0.0852 2.44197,0.77311 2.94921,2.4769 0.13762,0.46229 0.15548,1.10224 0.19847,7.112 l 0.0472,6.604 h 3.34433 3.34434 v -7.28133 c 0,-7.12245 -0.004,-7.3035 -0.18515,-8.29733 -0.67452,-3.70143 -2.18669,-5.55008 -5.16246,-6.31115 -0.97418,-0.24915 -2.72359,-0.37004 -3.67717,-0.2541 -2.13804,0.25996 -3.986128,1.39248 -5.184489,3.17707 l -0.2264,0.33715 v -1.50132 -1.50132 h -3.259667 -3.259666 v 10.78089 c 0,5.92949 0.02584,10.80672 0.05741,10.8383 0.03158,0.0316 1.546052,0.0474 3.3655,0.0353 l 3.308087,-0.0221 z M 84.189654,123.98289 c 2.332363,-0.7204 3.439793,-3.358 2.326299,-5.54063 -0.24086,-0.47212 -1.088575,-1.3325 -1.569121,-1.59255 -1.347962,-0.72948 -2.98374,-0.61944 -4.189146,0.2818 -1.917378,1.43356 -2.125718,4.19441 -0.443467,5.87666 0.477336,0.47733 1.232851,0.91991 1.797677,1.05306 0.578077,0.13628 1.494808,0.10171 2.077758,-0.0783 z"
         id="path4218"
         inkscape:connector-curvature="0" />
      <path
         style="fill:#ffffff;fill-opacity:1;stroke-width:0.08466667"
         d="m 122.52541,155.59867 c -1.94859,-0.70354 -2.71169,-2.9881 -1.56002,-4.67035 0.61639,-0.90038 1.49618,-1.32315 2.65399,-1.27537 1.24279,0.0513 2.12579,0.63345 2.65333,1.74929 0.23548,0.49807 0.26609,0.64764 0.26269,1.28343 -0.003,0.59247 -0.0432,0.80524 -0.22635,1.2038 -0.3111,0.67691 -0.88597,1.2626 -1.52683,1.55556 -0.65552,0.29966 -1.66253,0.36821 -2.25681,0.15364 z m 2.19031,-0.48502 c 2.05047,-1.01009 2.01004,-3.9371 -0.0683,-4.94105 -0.39764,-0.19209 -0.59135,-0.23085 -1.15509,-0.23112 -0.81222,-4.2e-4 -1.27393,0.17855 -1.86395,0.72242 -1.09476,1.00911 -1.19115,2.7078 -0.21649,3.81508 0.58828,0.66832 1.48847,1.02428 2.37677,0.93985 0.20955,-0.0199 0.62671,-0.15725 0.92701,-0.30518 z m -2.28168,-2.42798 v -1.60866 h 0.85087 c 1.00872,0 1.2889,0.10724 1.43474,0.54915 0.1809,0.54812 -0.0823,1.05138 -0.61596,1.17765 l -0.23536,0.0557 0.24401,0.35759 c 0.13421,0.19667 0.34537,0.51951 0.46926,0.71742 l 0.22523,0.35983 -0.23389,-0.002 c -0.20098,-0.001 -0.29731,-0.1027 -0.68454,-0.71967 -0.42276,-0.67359 -0.46859,-0.718 -0.74083,-0.718 h -0.29019 v 0.71966 c 0,0.7112 -0.002,0.71967 -0.21167,0.71967 h -0.21167 z m 1.6745,-0.30113 c 0.13987,-0.098 0.18817,-0.21674 0.18817,-0.46269 0,-0.42059 -0.14937,-0.50618 -0.88343,-0.50618 h -0.5559 v 0.55034 0.55033 h 0.53149 c 0.34402,0 0.59787,-0.0465 0.71967,-0.1318 z m -48.791495,2.89239 c -0.770258,-0.24442 -1.371055,-0.70578 -1.810156,-1.39006 -0.55407,-0.86345 -0.518177,0.59794 -0.518177,-21.09786 0,-17.51204 0.01452,-19.74752 0.131219,-20.19554 0.243362,-0.93433 0.90831,-1.72412 1.805953,-2.14502 l 0.475828,-0.22311 h 20.235332 20.235336 l 0.47582,0.22311 c 0.89765,0.4209 1.5626,1.21069 1.80596,2.14502 0.11669,0.44802 0.13122,2.6835 0.13122,20.19554 0,17.51204 -0.0145,19.74752 -0.13122,20.19554 -0.24336,0.93433 -0.90831,1.72412 -1.80596,2.14501 l -0.47582,0.22311 -20.108336,0.0159 c -16.050365,0.0127 -20.176677,-0.006 -20.446999,-0.0916 z m 11.133666,-17.32326 v -10.83733 h -3.386666 -3.386667 v 10.83733 10.83734 h 3.386667 3.386666 z m 10.922239,5.0165 c 1.69e-4,-3.64393 0.03447,-6.10581 0.09177,-6.58283 0.18215,-1.51632 0.726381,-2.64919 1.540378,-3.20646 0.741364,-0.50754 1.068972,-0.59261 2.304612,-0.59839 1.04067,-0.005 1.12957,0.008 1.63083,0.23969 0.83762,0.38684 1.37543,1.11067 1.68836,2.27237 0.1263,0.46883 0.14846,1.29674 0.1899,7.09246 l 0.0469,6.56166 3.3655,0.0221 3.36549,0.0221 v -6.80193 c 0,-4.18154 -0.0348,-7.15824 -0.0903,-7.72681 -0.2698,-2.76411 -0.94382,-4.4777 -2.28453,-5.80803 -1.13392,-1.12514 -2.55374,-1.67461 -4.79563,-1.85592 -3.00339,-0.2429 -5.357417,0.75471 -6.893062,2.92119 l -0.414502,0.58478 v -1.49494 -1.49495 h -3.259667 -3.259666 v 10.83733 10.83734 h 3.386666 3.386667 l 2.54e-4,-5.82084 z M 84.268646,123.97718 c 1.072057,-0.36115 1.820733,-1.03269 2.328864,-2.08893 0.693427,-1.44141 0.374918,-3.22011 -0.784174,-4.3792 -0.823452,-0.82345 -1.845818,-1.1992 -3.057243,-1.12362 -1.400843,0.0874 -2.600384,0.91867 -3.225694,2.2354 -0.665251,1.40083 -0.419266,3.09656 0.616268,4.24832 0.767504,0.85365 1.714601,1.27161 2.898882,1.2793 0.49573,0.003 0.854094,-0.047 1.223097,-0.17127 z"
         id="path4216"
         inkscape:connector-curvature="0" />
    </g>
  </g>
</svg>
